<svg width="150" height="36" viewBox="0 0 150 36" fill="none" xmlns="http://www.w3.org/2000/svg">
<g clip-path="url(#clip0_74_1254)">
<path d="M0 30.8093C4.68997 30.8093 9.37994 30.8104 14.0699 30.8046C14.3221 30.8046 14.5058 30.8651 14.6883 31.051C15.6762 32.0553 16.6793 33.0456 17.6743 34.037C17.608 34.1556 17.5185 34.1138 17.4499 34.1138C11.6988 34.1161 5.9476 34.1161 0.197595 34.1149C0.132505 34.1149 0.0674147 34.1068 0.00232464 34.1033C0.00232464 33.0049 0.00232464 31.9065 0.00232464 30.8081L0 30.8093Z" fill="#FEA400"/>
<path d="M105.575 35.0459C105.575 32.9304 105.581 30.8139 105.568 28.6984C105.567 28.4241 105.636 28.3544 105.911 28.3579C106.917 28.3683 106.913 28.3579 107.227 29.2959C107.74 30.8255 108.257 32.3539 108.805 33.98C108.953 33.5709 109.074 33.2431 109.19 32.9142C109.681 31.5136 110.177 30.1165 110.65 28.7101C110.74 28.4439 110.852 28.3509 111.137 28.3579C111.943 28.3776 111.944 28.3637 111.944 29.1692V35.0459H111.079V29.7306C110.814 30.3141 110.594 30.9045 110.396 31.5031C110.003 32.6864 109.53 33.8429 109.191 35.0459H108.327C107.72 33.2326 107.113 31.4183 106.506 29.605C106.484 29.6109 106.462 29.6155 106.44 29.6213V35.0459H105.575Z" fill="#010101"/>
<path d="M126.329 35.0459C126.324 32.9037 126.321 30.7604 126.316 28.6182C126.316 28.4904 126.284 28.3579 126.499 28.3625C127.494 28.3811 128.492 28.3369 129.481 28.4125C130.478 28.4892 131.181 29.0634 131.523 30.0037C131.996 31.2997 131.979 32.5864 131.303 33.8185C130.934 34.4891 130.352 34.8762 129.583 34.968C129.529 34.975 129.482 34.9831 129.472 35.047H126.328L126.329 35.0459ZM127.207 31.6937C127.207 32.4516 127.215 33.2082 127.202 33.9661C127.198 34.1904 127.269 34.2601 127.491 34.2532C127.962 34.238 128.434 34.2578 128.905 34.2462C129.937 34.2206 130.456 33.8196 130.749 32.8282C130.964 32.0994 130.963 31.3567 130.788 30.6256C130.566 29.6992 129.954 29.218 128.994 29.1773C128.498 29.1564 127.999 29.1773 127.503 29.1564C127.26 29.1459 127.194 29.218 127.2 29.4609C127.216 30.2048 127.205 30.9498 127.205 31.6937H127.207Z" fill="#010101"/>
<path d="M116.737 35.0459C116.737 32.9293 116.743 30.8127 116.73 28.6961C116.729 28.416 116.807 28.3556 117.077 28.3591C118.465 28.373 119.854 28.3858 121.24 28.3532C121.649 28.344 121.554 28.5683 121.573 28.7891C121.594 29.046 121.563 29.1797 121.233 29.1715C120.148 29.146 119.06 29.1715 117.973 29.1553C117.689 29.1506 117.62 29.2378 117.634 29.5051C117.656 29.948 117.66 30.3943 117.632 30.8371C117.613 31.1486 117.731 31.1998 118.013 31.1951C119.007 31.1789 120.004 31.2079 120.997 31.1789C121.367 31.1672 121.314 31.3672 121.311 31.5868C121.309 31.8007 121.379 32.0088 121.001 31.9971C119.98 31.9669 118.959 31.9948 117.937 31.9809C117.693 31.9774 117.624 32.0459 117.632 32.2865C117.65 32.8352 117.651 33.3849 117.632 33.9324C117.623 34.1962 117.714 34.2578 117.967 34.2544C119.054 34.2404 120.141 34.2683 121.228 34.2381C121.63 34.2276 121.804 34.3276 121.727 34.739C121.709 34.8402 121.702 34.9436 121.69 35.0447H116.737V35.0459Z" fill="#010101"/>
<path d="M141.658 35.0459C141.842 34.2474 142.207 33.5128 142.487 32.748C142.983 31.3939 143.52 30.0549 144.021 28.7032C144.118 28.4416 144.241 28.3475 144.522 28.3579C145.151 28.38 145.154 28.3626 145.395 28.9577C146.165 30.8639 146.934 32.7701 147.696 34.6798C147.742 34.7937 147.841 34.9041 147.791 35.0471H146.769C146.622 34.3985 146.309 33.8081 146.112 33.1758C146.069 33.0363 145.973 33.0165 145.841 33.0177C145.068 33.0223 144.297 33.0235 143.524 33.0177C143.371 33.0165 143.28 33.0572 143.23 33.206C143.023 33.8209 142.811 34.4346 142.602 35.0483H141.658V35.0459ZM145.766 32.2866C145.382 31.2475 145.013 30.2467 144.622 29.1913C144.569 29.3913 144.536 29.5179 144.502 29.6435C144.287 30.4501 143.949 31.2138 143.662 31.9949C143.586 32.2006 143.574 32.2982 143.847 32.2912C144.471 32.2761 145.096 32.2866 145.766 32.2866Z" fill="#010101"/>
<path d="M136.549 35.0459C136.544 32.8944 136.543 30.7418 136.531 28.5903C136.531 28.3858 136.613 28.3486 136.785 28.3625C136.915 28.373 137.046 28.373 137.176 28.3625C137.35 28.3486 137.431 28.3858 137.43 28.5903C137.418 30.7418 137.417 32.8944 137.412 35.0459H136.548H136.549Z" fill="#010101"/>
<path d="M43.2295 30.8092H43.6805C62.2021 30.8092 80.7237 30.8092 99.2464 30.8022C99.5905 30.8022 99.716 30.8685 99.7021 31.2416C99.6707 32.1029 99.6858 32.9665 99.6963 33.8289C99.6986 34.0463 99.6405 34.1474 99.4115 34.1184C99.3208 34.1067 99.2278 34.116 99.1372 34.116C81.7547 34.116 64.3721 34.116 46.9908 34.123C46.6456 34.123 46.4108 34.0184 46.1748 33.7766C45.3077 32.8863 44.4197 32.0157 43.5398 31.137C43.4515 31.0487 43.3678 30.9545 43.2295 30.8081V30.8092Z" fill="#FEA400"/>
<path d="M43.5895 34.116C43.3699 34.116 43.2571 34.116 43.1432 34.116C40.0909 34.116 37.0387 34.1126 33.9876 34.1219C33.7168 34.1219 33.5261 34.0463 33.3367 33.8545C32.3522 32.8596 31.3549 31.8774 30.3623 30.8918C30.4437 30.7511 30.5611 30.8127 30.6517 30.8127C33.7563 30.8092 36.8608 30.8092 39.9654 30.8092C40.1363 30.8092 40.285 30.8151 40.4257 30.9569C41.4474 31.989 42.4795 33.0107 43.5907 34.1172L43.5895 34.116Z" fill="#FEA400"/>
<path d="M17.4269 30.8092C20.7047 30.8092 23.9011 30.8092 27.0963 30.808C27.2451 30.808 27.3694 30.8255 27.4845 30.9429C28.4888 31.9552 29.5 32.9607 30.5089 33.9696C30.5333 33.994 30.5449 34.0312 30.5937 34.1172C30.4461 34.1172 30.3345 34.1172 30.2241 34.1172C27.1719 34.1172 24.1208 34.1172 21.0685 34.1183C20.8697 34.1183 20.6977 34.1114 20.5362 33.9475C19.554 32.9502 18.5579 31.9657 17.5676 30.9766C17.5339 30.9429 17.5048 30.9033 17.4258 30.8104L17.4269 30.8092Z" fill="#FEA400"/>
<path d="M135.25 4.29669C139.462 4.29669 133.744 4.29553 137.956 4.30018C138.183 4.30018 138.348 4.24555 138.51 4.07934C139.398 3.17738 140.299 2.28704 141.192 1.3967C141.131 1.28976 141.052 1.32812 140.991 1.32812C135.825 1.3258 140.591 1.3258 135.426 1.32696C135.367 1.32696 135.308 1.33393 135.25 1.33742C135.25 2.32423 135.25 3.30988 135.25 4.29669Z" fill="#FEA400"/>
<path d="M96.5712 23.6285C90.304 23.6273 85.227 18.5712 85.2305 12.3016C85.2351 5.88909 90.4598 0.916676 96.6828 0.95387C103.008 0.991064 108.064 6.25755 107.965 12.5062C107.869 18.6188 102.816 23.6308 96.5712 23.6296V23.6285ZM96.6468 3.90152C92.0138 3.91314 88.3722 7.52099 88.2025 11.9692C88.0235 16.6801 91.7325 20.6192 96.5445 20.6878C101.104 20.7517 104.973 16.9695 105.012 12.426C105.052 7.7488 101.319 3.94453 96.648 3.90268L96.6468 3.90152Z" fill="#010101"/>
<path d="M21.0551 9.28421C21.0551 6.73523 21.062 4.18626 21.0469 1.63845C21.0446 1.3037 21.1399 1.22815 21.4595 1.23978C22.179 1.26535 22.9008 1.26767 23.6203 1.23978C23.9481 1.22699 23.9969 1.34439 23.9957 1.6338C23.9876 6.39119 23.9888 11.1486 23.9911 15.906C23.9911 16.5731 24.0364 17.238 24.2503 17.8773C24.9976 20.1159 27.5606 21.277 29.8864 20.4309C31.8368 19.7219 32.8212 18.2899 32.8224 16.1361C32.8259 11.3264 32.8282 6.51672 32.8143 1.70703C32.8143 1.33741 32.8863 1.21769 33.2757 1.23745C33.994 1.27348 34.7158 1.25605 35.4365 1.24326C35.6713 1.23978 35.7759 1.27116 35.7759 1.55128C35.7666 6.54461 35.7945 11.5368 35.7608 16.5301C35.7352 20.3379 32.7875 23.3808 28.9705 23.6005C26.1135 23.7656 23.8063 22.7299 22.1697 20.3542C21.327 19.1302 21.0574 17.7273 21.0562 16.2651C21.0551 13.9381 21.0562 11.6123 21.0562 9.28537L21.0551 9.28421Z" fill="#010101"/>
<path d="M113.715 9.37955C113.715 6.805 113.724 4.2293 113.704 1.65475C113.702 1.28862 113.817 1.22934 114.141 1.24097C114.848 1.26421 115.557 1.2677 116.262 1.23981C116.593 1.22702 116.668 1.32001 116.667 1.64546C116.655 6.53418 116.659 11.4229 116.659 16.3116C116.659 18.627 118.059 20.3112 120.347 20.6576C122.476 20.9807 125.465 19.6103 125.463 16.3546C125.461 11.4659 125.467 6.57719 125.455 1.68846C125.455 1.34093 125.527 1.22353 125.896 1.23981C126.628 1.27235 127.363 1.25724 128.096 1.24445C128.318 1.24097 128.416 1.27235 128.414 1.53387C128.406 6.57951 128.449 11.6252 128.395 16.6708C128.354 20.4065 125.339 23.4134 121.593 23.6087C119.055 23.7412 116.92 22.916 115.265 20.9691C114.178 19.6917 113.729 18.1702 113.718 16.5185C113.702 14.1393 113.713 11.76 113.713 9.38187L113.715 9.37955Z" fill="#010101"/>
<path d="M0.090364 12.2203C0.090364 8.69031 0.093851 5.1615 0.0833901 1.63153C0.0833901 1.33514 0.142668 1.23866 0.463469 1.23983C5.11392 1.25145 9.76437 1.25029 14.4148 1.24099C14.7008 1.24099 14.7961 1.29678 14.7856 1.60015C14.7612 2.33125 14.76 3.06467 14.7856 3.79577C14.7972 4.12239 14.7345 4.22816 14.3718 4.22583C10.7303 4.20956 7.08871 4.22002 3.44599 4.20724C3.12054 4.20724 3.04266 4.28046 3.04266 4.60824C3.05429 10.6604 3.04731 16.7138 3.0601 22.766C3.0601 23.1264 2.96944 23.2228 2.61377 23.2089C1.90707 23.1798 1.19922 23.1821 0.492527 23.2089C0.172889 23.2205 0.0799031 23.1449 0.0810654 22.8102C0.0950133 19.2802 0.0892017 15.7514 0.0892017 12.2214L0.090364 12.2203Z" fill="#010101"/>
<path d="M45.581 20.2984C45.581 21.2341 45.5705 22.0698 45.588 22.9043C45.5926 23.1531 45.5171 23.21 45.2799 23.2054C44.507 23.1914 43.734 23.1845 42.9611 23.2077C42.6659 23.217 42.5985 23.1391 42.5996 22.8462C42.6101 17.46 42.6066 12.0738 42.6066 6.68645C42.6066 4.98714 42.6124 3.28666 42.6008 1.58735C42.5985 1.31885 42.6601 1.23168 42.9413 1.23981C43.7003 1.26073 44.4617 1.2619 45.2207 1.23981C45.5147 1.23168 45.5891 1.30955 45.5891 1.60478C45.5775 5.06966 45.5821 8.53338 45.5821 11.9983C45.5821 14.6263 45.588 17.2543 45.5752 19.8823C45.574 20.1868 45.6496 20.2682 45.9587 20.2682C49.6142 20.2566 53.2697 20.2647 56.9241 20.2542C57.2193 20.2542 57.3274 20.31 57.3158 20.632C57.2891 21.4026 57.2995 22.1744 57.3123 22.9462C57.3158 23.1542 57.2542 23.2054 57.0508 23.2054C54.1554 23.1984 51.2601 23.1996 48.3647 23.2054C48.1823 23.2054 48.08 23.124 47.973 23.0008C47.2431 22.1639 46.5097 21.3294 45.7774 20.4948C45.7367 20.4483 45.6914 20.4077 45.5821 20.2984H45.581Z" fill="#010101"/>
<path d="M141.198 12.254C141.198 8.73794 141.202 5.22191 141.191 1.70473C141.191 1.39904 141.263 1.31535 141.576 1.31767C144.261 1.33046 146.947 1.33046 149.632 1.31767C149.926 1.31651 150.008 1.38625 149.998 1.68148C149.975 2.41258 149.974 3.14601 149.998 3.87711C150.009 4.19326 149.941 4.29438 149.601 4.28973C147.911 4.26997 146.221 4.28973 144.532 4.2723C144.215 4.26881 144.154 4.36296 144.154 4.66051C144.162 10.7127 144.156 16.7649 144.17 22.8171C144.17 23.2112 144.059 23.2902 143.694 23.2739C142.988 23.2437 142.279 23.246 141.573 23.2739C141.25 23.2867 141.191 23.1775 141.193 22.8811C141.203 19.3383 141.2 15.7967 141.2 12.254H141.198Z" fill="#010101"/>
<path d="M63.8736 12.2086C63.8736 8.69261 63.8794 5.17543 63.8643 1.6594C63.8631 1.30606 63.9572 1.22585 64.2955 1.23864C65.015 1.26654 65.7368 1.26421 66.4562 1.23864C66.7712 1.22702 66.8386 1.32465 66.8386 1.62686C66.8293 7.6535 66.8317 13.679 66.8317 19.7056C66.8317 20.7715 66.8235 21.8373 66.8375 22.902C66.841 23.1403 66.784 23.2112 66.5376 23.2054C65.7647 23.1879 64.9917 23.1798 64.2199 23.2077C63.9026 23.2193 63.8678 23.1054 63.8689 22.8346C63.8771 19.2918 63.8747 15.7491 63.8747 12.2075L63.8736 12.2086Z" fill="#010101"/>
<path d="M66.8586 20.2833C67.0655 20.2728 67.1794 20.2623 67.2921 20.2623C70.9209 20.2623 74.5497 20.2647 78.1784 20.2554C78.4725 20.2554 78.5887 20.3088 78.5771 20.6343C78.5515 21.3921 78.5574 22.1511 78.5748 22.9089C78.5806 23.1577 78.5039 23.2065 78.2679 23.2065C75.3993 23.1984 72.5296 23.2007 69.6609 23.2019C69.5308 23.2019 69.4064 23.2111 69.3041 23.0926C68.5114 22.1767 67.7129 21.2654 66.8574 20.2844L66.8586 20.2833Z" fill="#010101"/>
<path d="M3.10938 14.4008C6.31041 14.4008 9.41149 14.4008 12.5126 14.4008C13.0364 14.4008 13.2983 14.6634 13.2983 15.1888C13.2983 15.8153 13.2913 16.443 13.3029 17.0695C13.3064 17.2705 13.2541 17.3345 13.0437 17.3333C10.6621 17.3263 8.27938 17.3286 5.89779 17.3286C5.78155 17.3286 5.67462 17.3356 5.58047 17.2264C4.78079 16.3035 3.97298 15.3852 3.10938 14.3996V14.4008Z" fill="#010101"/>
<path d="M141.132 1.32698C140.415 2.14641 139.723 2.87287 139.113 3.66092C138.716 4.1735 138.271 4.3432 137.644 4.29322C136.982 4.23976 136.311 4.27114 135.645 4.28625C135.398 4.29206 135.335 4.20721 135.338 3.97242C135.351 3.19018 135.352 2.40677 135.338 1.62453C135.333 1.37347 135.429 1.32233 135.658 1.32349C137.449 1.33163 139.239 1.32814 141.133 1.32814L141.132 1.32698Z" fill="#FEA400"/>
</g>
<defs>
<clipPath id="clip0_74_1254">
<rect width="150" height="34.0921" fill="white" transform="translate(0 0.953964)"/>
</clipPath>
</defs>
</svg>
